# xmcd CD database file generated by Grip 3.0.1
# 
# Track frame offsets:
#       150
#       20498
#       37789
#       56489
#       80507
#       90680
#       110296
#       125121
#       145179
#       159892
#       183453
#       202806
# 
# Disc length: 2933 seconds
# 
# Revision: 2
# Processed by: cddbd v1.4PL0 Copyright (c) Steve Scherf et al.
# Submitted via: Grip 3.0.1
# 
DISCID=930b730c
DTITLE=R.E.M. - Automatic for the People
DYEAR=1992
DGENRE=Rock
TTITLE0=Drive
TTITLE1=I'm Not to Breathe
TTITLE2=The Sidewinder Sleeps Tonite
TTITLE3=Everybody Hurts
TTITLE4=New Orleans Instrumental No. 1
TTITLE5=Sweetness Follows
TTITLE6=Monty Got a Raw Deal
TTITLE7=Ignoreland
TTITLE8=Star Me Kitten
TTITLE9=Man on the Moon
TTITLE10=Nightswimming
TTITLE11=Find the River
EXTD=
EXTT0=
EXTT1=
EXTT2=
EXTT3=
EXTT4=
EXTT5=
EXTT6=
EXTT7=
EXTT8=
EXTT9=
EXTT10=
EXTT11=
PLAYORDER=
